PathFileType	4	(X/Y/Z)	OpenSim_Sub04_CSBaseline_Accel.trc
DataRate	CameraRate	NumFrames	NumMarkers	Units	OrigDataRate	OrigDataStartFrame	OrigNumFrames
100	100	30	8	m	100	6063	8083
Frame#	Time	torso_imu_offset_imu	pelvis_imu_offset_imu	tibia_r_imu_offset_imu	femur_r_imu_offset_imu	tibia_l_imu_offset_imu	femur_l_imu_offset_imu	toes_r_imu_offset_imu	toes_l_imu_offset_imu
				X1	Y1	Z1	X2	Y2	Z2	X3	Y3	Z3	X4	Y4	Z4	X5	Y5	Z5	X6	Y6	Z6	X7	Y7	Z7	X8		Y8	Z8	

6063	60.62000000	-7.68112480	-0.68094652	8.29466333	8.48216111	-0.27265163	4.57313931	12.24554769	0.19362228	0.50950951	10.70667173	0.11385140	2.44459152	7.55084653	-6.34767383	-2.62601359	7.00496329	-5.52160838	-1.14872243	13.12231174	-5.47181581	9.44948471	4.67715044	3.52758897	10.77675319
6064	60.63000000	-7.15880134	-0.72887102	7.86020101	7.85300690	-0.13884945	4.50614580	11.83987625	1.27765458	-0.06641464	10.08145584	0.27497647	2.37312022	7.79494749	-6.28278750	-1.89589758	7.06831144	-5.84534186	-1.83919884	16.11578290	1.63657207	11.81852532	6.01752178	4.14024417	10.17394477
6065	60.64000000	-6.78028289	-0.79345033	7.48592217	7.33330915	-0.02384275	4.37237415	11.60149443	3.23376920	0.20685936	9.29370824	0.06957825	2.28768181	8.06499120	-6.01660715	-1.88035537	7.56770538	-4.64996994	-2.53960395	12.81650848	-1.60808458	9.34256024	5.36644888	3.02226323	10.44402417
6066	60.65000000	-6.68463574	-0.96581102	7.28623327	7.09581329	0.01668310	4.39747521	11.05911966	5.59704679	0.70302391	8.83283988	-0.13654613	2.09901633	9.29133696	-5.59149727	-1.14744995	8.48916989	-2.64033483	-3.39840429	13.46741305	-4.57005469	8.71947936	5.42158236	1.88289452	10.73044751
6067	60.66000000	-6.82223948	-1.10522985	7.30854950	7.05179640	-0.20681549	4.60973442	9.65682475	7.49111078	0.52062324	8.66521980	-0.20820333	1.93063574	10.51293233	-3.69394705	0.18370265	9.31141206	-0.16101400	-3.74283668	15.05199281	-3.64659378	8.59785158	5.37119861	1.80678996	11.21359390
6068	60.67000000	-7.29050114	-1.31913099	7.48706201	7.24413409	-0.45180115	4.79394988	7.80801001	8.83333447	0.28329714	8.83319810	-0.05767065	1.77316467	10.68647373	-0.95353957	0.90812226	10.24447378	2.06537325	-3.79661460	13.41501631	-3.54875115	6.15575289	5.37880626	2.13046697	11.10696188
6069	60.68000000	-7.91105776	-1.53371444	7.72068106	7.72633022	-0.72445305	5.00029631	6.41359393	9.35840693	-0.19879791	9.52808222	-0.02970356	1.69486928	10.68660649	1.07612611	1.02010879	11.00886131	3.94989742	-3.02354792	3.67630479	4.18922263	14.61718522	5.24812637	2.84312320	11.16297689
6070	60.69000000	-8.33564158	-1.69525231	8.07800925	8.36301873	-0.93405673	5.22446219	6.37010372	9.14913734	-1.79828819	10.72595773	-0.24711734	1.88715027	10.75889402	1.57479891	0.56067491	11.41510729	5.41266655	-2.32525128	17.15135996	-0.18889654	19.07266340	4.86521248	2.72160434	11.18301213
6071	60.70000000	-8.44959075	-1.79772478	8.33901381	9.22013627	-1.19969049	5.37931812	6.12231684	7.91142091	0.15478915	11.88548435	-0.15595087	1.84283968	10.78959447	0.49450686	-0.10396965	11.47465640	5.64675644	-1.43017672	3.79031681	-6.38676839	15.19582034	5.57218703	2.49803823	10.99178134
6072	60.71000000	-8.44508774	-1.86282205	8.46780598	10.22263349	-1.27786771	5.38918977	5.40082381	5.94678363	1.44700168	12.92121424	-0.40278640	1.32891478	10.57414927	-1.35594881	-0.88523140	10.72290358	4.67935338	-0.30247298	-1.33069166	-8.65628465	11.02249752	5.56160956	2.66440054	10.85402702
6073	60.72000000	-8.29533839	-1.68746030	8.62416304	11.16683870	-1.16511600	5.15399395	5.44818623	4.63377571	1.42403789	13.12801240	-0.49195621	0.73032540	10.37945060	-3.11684495	-1.55117838	9.87631799	3.77664570	-0.57832084	2.02959154	-5.43269987	11.58134558	5.37233602	3.09479762	10.78000757
6074	60.73000000	-7.87875105	-1.55448158	8.54640585	11.71206827	-0.91616018	4.82560581	5.73957977	4.68169755	1.71687804	12.14594337	-0.35455050	0.55944514	10.00100400	-3.97617830	-1.44365100	9.40683801	2.18111722	-0.88613231	1.89344213	-3.53966818	12.03455605	5.45765021	3.05600717	10.64677852
6075	60.74000000	-7.62568054	-1.35022503	8.36320415	11.66434614	-0.31465270	4.56185021	5.65666920	5.54285167	1.45696962	11.14283294	-0.27884722	0.73598836	9.62546133	-4.07918389	-1.47751912	8.73389690	1.22562305	-1.38442735	0.81402571	-3.66276099	11.18072174	4.97729126	2.73544379	10.98401076
6076	60.75000000	-7.76266561	-1.31477206	8.27705512	11.20822369	0.04125097	4.41295556	5.43247888	6.16773214	1.33851562	10.56948753	-0.49370044	1.03017775	9.60328499	-3.67886063	-1.45646921	8.44261802	0.49129616	-2.14598922	0.24865777	-3.71305401	10.28221707	5.30969691	2.99945504	10.77081542
6077	60.76000000	-8.03373739	-1.24038362	8.40484696	10.60639379	0.45974697	4.27460197	5.25403719	6.35181130	1.61214383	10.55511988	-0.66973017	1.30596781	9.47376269	-3.02132636	-1.31733574	8.84042260	0.23466653	-2.85165025	0.58624814	-3.12043594	9.80031410	5.29989656	3.13160201	10.59899616
6078	60.77000000	-8.19987428	-1.25536228	8.50170204	9.79341086	0.57049176	4.13547689	4.88445263	6.17742253	1.65257914	10.78559504	-0.76133309	1.58785947	9.35543370	-2.31588736	-0.94457617	8.91478071	0.47618071	-3.36998303	1.66206041	-1.77921261	9.97113611	5.78292535	3.14236845	10.07001348
6079	60.78000000	-8.23355528	-1.30152007	8.49429841	8.97869740	0.58026825	4.07864130	4.22596204	6.17465682	1.72214534	10.84293927	-0.89486902	1.83225918	9.51641713	-1.71569849	-0.50438203	9.11808977	-0.39862703	-2.82747713	3.18937241	-0.17244599	10.34695286	5.88272098	3.08043306	10.09866526
6080	60.79000000	-8.05627239	-1.35533404	8.53935156	8.46383442	0.50226499	3.96668151	3.66065734	6.73845450	1.83489190	10.71485067	-0.91585221	2.09094785	9.56932144	-1.33926694	-0.52765710	9.26812319	-0.35172277	-2.61268017	3.91059097	0.85692947	10.21931019	5.22159557	3.09770473	10.44767905
6081	60.80000000	-7.69474643	-1.37570734	8.50220101	8.13166519	0.31103635	3.95626550	3.50761836	7.61805156	1.83673133	10.42426024	-0.86292373	2.26912501	9.46501295	-0.91475358	-0.27735701	9.14009044	-0.07635477	-2.27444300	3.69248294	0.97281958	9.67766015	5.27983501	3.25739545	10.21139417
6082	60.81000000	-7.42761168	-1.31554077	8.42162262	8.03102467	0.09728041	3.88482279	3.80602949	8.28908313	1.50446814	9.82585435	-0.93067809	2.40279853	9.34020724	-0.67846375	-0.32115886	8.99716727	-0.11937466	-1.87547398	3.77864493	0.96682925	9.12929467	5.13918621	3.05742879	10.47006466
6083	60.82000000	-7.18072160	-1.24480158	8.32628955	8.03297561	-0.07258357	3.75581617	4.26676066	8.72306013	1.21002073	9.41106350	-0.72567204	2.47470290	9.47054549	-1.26042597	-0.37232753	9.04134969	0.12881884	-1.60075051	4.26562502	1.06146625	8.89571304	5.38917535	2.93382769	10.38881385
6084	60.83000000	-7.08671341	-1.17473691	8.20126465	8.14251454	-0.39324937	3.62528399	4.52696473	8.99976769	1.23913973	8.87241044	-0.51907378	2.46372834	9.56977328	-2.16109426	-0.33010981	9.07690485	0.50576250	-1.53451503	5.13052222	1.52789158	8.90611037	5.22760739	2.78864337	10.47145900
6085	60.84000000	-7.13162742	-1.04295988	8.14548147	8.39577111	-0.62929116	3.51437217	4.57005646	9.22257710	1.42072983	8.45776010	-0.24389111	2.43798755	9.51313524	-3.06028677	-0.19766827	9.32511948	0.71700973	-1.49426213	5.81758783	2.09614684	8.99324118	5.15865406	2.69189028	10.61108121
6086	60.85000000	-7.07357573	-0.90146037	8.08028525	8.69651221	-0.91032367	3.38669207	4.24575009	9.12035005	1.22775182	8.01485527	-0.01613081	2.39275863	9.59022080	-3.17232040	-0.10956963	9.49470327	0.93297017	-1.51231224	7.16661332	2.17192998	8.94267518	5.76542813	2.49132961	10.34688758
6087	60.86000000	-6.95795837	-0.76380812	8.06097040	8.88274393	-1.00738498	3.26510023	4.07122478	8.57183423	1.26691706	7.57842853	0.07640431	2.36160916	9.65730339	-2.95381807	-0.17843286	9.50644626	1.14087461	-1.59895780	8.35123629	1.40385239	8.82472394	5.86065175	2.31001838	10.21403826
6088	60.87000000	-6.83307528	-0.61371094	7.92477932	9.19063514	-1.44046178	3.19090593	4.37723226	8.24358667	1.47105623	7.34477489	0.31183468	2.37374919	9.63614854	-2.70772829	0.03806442	9.76641038	1.24482207	-1.73389475	9.47272555	0.65774791	9.11113110	5.81205608	2.41180384	10.30312729
6089	60.88000000	-6.82681121	-0.55386635	8.02463987	9.43101927	-1.60449886	3.05742648	5.16986256	8.38662210	1.39649980	7.23074397	0.28335441	2.35033777	9.50338932	-2.24991571	-0.05080405	9.84747263	1.24881567	-1.79800429	10.67742288	0.14548205	9.54252088	5.53891230	2.47619018	10.57467089
6090	60.89000000	-6.88579646	-0.55738372	8.25566111	9.54546044	-1.75910223	2.93170126	6.03288276	8.64944372	0.86641712	7.23336244	0.31363203	2.49458259	9.68547759	-1.62376101	-0.01949768	9.82123953	1.16257763	-1.85781910	12.34199432	-0.11488189	10.27829544	5.41020717	2.45918048	10.50462910
6091	60.90000000	-7.07490196	-0.63293108	8.19086412	9.68783385	-2.00273334	2.90892607	6.55537423	8.27507819	0.27408158	7.26740842	0.25206296	2.52019714	9.64697673	-1.34359928	-0.04114248	9.83163420	1.17972369	-1.99613623	14.40614142	0.42053802	10.85695947	5.53228704	2.59508149	10.50085500
6092	60.91000000	-7.24653203	-0.76468445	8.11767288	9.55674534	-1.80925106	2.82646770	7.07081280	6.61508398	0.18406304	7.39206400	0.12629596	2.61999524	9.81355307	-1.68192809	-0.17222194	9.73191669	1.08738699	-2.06266018	15.61926439	0.58667704	10.25726255	5.80456370	2.57805998	10.36069868
